<svg width="25" height="29" viewBox="0 0 25 29" fill="none" xmlns="http://www.w3.org/2000/svg">
<path d="M8.6377 22V23C8.6377 24.0609 9.04462 25.0783 9.76894 25.8284C10.4933 26.5786 11.4757 27 12.5 27C13.5243 27 14.5067 26.5786 15.2311 25.8284C15.9554 25.0783 16.3623 24.0609 16.3623 23V22M3.83434 11C3.83274 9.81396 4.05781 8.63937 4.49658 7.54388C4.93535 6.44839 5.57914 5.45368 6.39084 4.61708C7.20253 3.78047 8.16609 3.11852 9.22596 2.66939C10.2858 2.22025 11.4211 1.99281 12.5662 2.00017C17.3445 2.03696 21.1666 6.15035 21.1666 11.1129V12C21.1666 16.4769 22.071 19.0748 22.8676 20.4947C22.9534 20.6465 22.9991 20.8189 23 20.9948C23.0009 21.1706 22.957 21.3436 22.8728 21.4962C22.7885 21.6489 22.6669 21.7758 22.5202 21.8643C22.3735 21.9527 22.2068 21.9995 22.037 22H2.96298C2.79318 21.9995 2.62651 21.9527 2.47976 21.8642C2.33302 21.7758 2.21139 21.6488 2.12716 21.4961C2.04293 21.3434 1.99908 21.1704 2.00001 20.9946C2.00095 20.8187 2.04665 20.6462 2.13251 20.4945C2.9295 19.0746 3.83433 16.4767 3.83433 12L3.83434 11Z" stroke="url(#paint0_linear_360_2465)" stroke-width="2.5" stroke-linecap="round" stroke-linejoin="round"/>
<defs>
<linearGradient id="paint0_linear_360_2465" x1="1.99969" y1="8.12523" x2="18.4903" y2="5.81262" gradientUnits="userSpaceOnUse">
<stop stop-color="#00A4FB"/>
<stop offset="1" stop-color="#00F798"/>
</linearGradient>
</defs>
</svg>
