<svg width="24" height="24" viewBox="0 0 24 24" fill="none" xmlns="http://www.w3.org/2000/svg">
<path d="M8.99994 24H0.999994C0.734779 24 0.480426 23.8947 0.292891 23.7072C0.105356 23.5197 0 23.2654 0 23.0003C0 22.7351 0.105356 22.4809 0.292891 22.2934C0.480426 22.1059 0.734779 22.0006 0.999994 22.0006H8.99994C9.26516 22.0006 9.51951 22.1059 9.70704 22.2934C9.89458 22.4809 9.99994 22.7351 9.99994 23.0003C9.99994 23.2654 9.89458 23.5197 9.70704 23.7072C9.51951 23.8947 9.26516 24 8.99994 24ZM6.99995 20.0011H0.999994C0.734779 20.0011 0.480426 19.8958 0.292891 19.7083C0.105356 19.5208 0 19.2665 0 19.0014C0 18.7363 0.105356 18.482 0.292891 18.2945C0.480426 18.107 0.734779 18.0017 0.999994 18.0017H6.99995C7.26517 18.0017 7.51952 18.107 7.70706 18.2945C7.89459 18.482 7.99995 18.7363 7.99995 19.0014C7.99995 19.2665 7.89459 19.5208 7.70706 19.7083C7.51952 19.8958 7.26517 20.0011 6.99995 20.0011ZM4.99997 16.0022H0.999994C0.734779 16.0022 0.480426 15.8969 0.292891 15.7094C0.105356 15.5219 0 15.2677 0 15.0025C0 14.7374 0.105356 14.4831 0.292891 14.2956C0.480426 14.1081 0.734779 14.0028 0.999994 14.0028H4.99997C5.26518 14.0028 5.51953 14.1081 5.70707 14.2956C5.8946 14.4831 5.99996 14.7374 5.99996 15.0025C5.99996 15.2677 5.8946 15.5219 5.70707 15.7094C5.51953 15.8969 5.26518 16.0022 4.99997 16.0022ZM12.9999 23.955C12.7347 23.9668 12.4757 23.8728 12.2798 23.6937C12.0839 23.5145 11.9672 23.2649 11.9554 22.9998C11.9436 22.7346 12.0377 22.4757 12.2168 22.2798C12.396 22.084 12.6457 21.9674 12.9109 21.9556C14.8034 21.7825 16.6073 21.0738 18.1114 19.9127C19.6155 18.7516 20.7576 17.186 21.4038 15.3994C22.05 13.6128 22.1736 11.6791 21.7601 9.82477C21.3466 7.97045 20.4132 6.27231 19.0691 4.92923C17.7251 3.58616 16.026 2.65376 14.171 2.24125C12.316 1.82874 10.3818 1.95319 8.59501 2.60004C6.8082 3.24689 5.24275 4.38934 4.082 5.89359C2.92125 7.39783 2.21327 9.2016 2.04099 11.0936C2.02917 11.2244 1.9917 11.3515 1.93073 11.4678C1.86976 11.5841 1.78647 11.6872 1.68563 11.7713C1.58478 11.8554 1.46836 11.9189 1.34299 11.958C1.21763 11.9971 1.08579 12.0112 0.954994 11.9994C0.824198 11.9875 0.697011 11.9501 0.580694 11.8891C0.464378 11.8282 0.36121 11.7449 0.27708 11.6441C0.192951 11.5433 0.129508 11.4269 0.0903739 11.3016C0.0512398 11.1762 0.0371808 11.0444 0.0489997 10.9137C0.327887 7.83782 1.78259 4.98801 4.1103 2.95745C6.43801 0.926878 9.45938 -0.127993 12.5455 0.0124151C15.6316 0.152823 18.5446 1.47769 20.6782 3.71124C22.8118 5.94478 24.0016 8.91491 23.9998 12.0034C24.0152 15.0009 22.9013 17.8943 20.8798 20.1081C18.8582 22.3219 16.0772 23.6938 13.0899 23.951C13.0599 23.954 13.0289 23.955 12.9999 23.955ZM11.9999 6.00503C11.7347 6.00503 11.4804 6.11035 11.2928 6.29784C11.1053 6.48532 10.9999 6.7396 10.9999 7.00475V12.0034C11 12.2685 11.1054 12.5227 11.2929 12.7102L14.2929 15.7093C14.4815 15.8914 14.7341 15.9922 14.9963 15.9899C15.2585 15.9876 15.5093 15.8825 15.6947 15.6971C15.8801 15.5118 15.9853 15.261 15.9876 14.9989C15.9898 14.7368 15.8891 14.4843 15.7069 14.2957L12.9999 11.5895V7.00475C12.9999 6.7396 12.8946 6.48532 12.707 6.29784C12.5195 6.11035 12.2651 6.00503 11.9999 6.00503Z" fill="url(#paint0_linear_360_1374)"/>
<defs>
<linearGradient id="paint0_linear_360_1374" x1="-0.000354834" y1="5.88022" x2="18.6956" y2="2.75893" gradientUnits="userSpaceOnUse">
<stop stop-color="#00A4FB"/>
<stop offset="1" stop-color="#00F798"/>
</linearGradient>
</defs>
</svg>
