<svg width="16" height="16" viewBox="0 0 16 16" fill="none" xmlns="http://www.w3.org/2000/svg">
<path fill-rule="evenodd" clip-rule="evenodd" d="M7.99995 4C8.44178 4 8.79995 4.35817 8.79995 4.8V7.66863L10.9656 9.83431C11.2781 10.1467 11.2781 10.6533 10.9656 10.9657C10.6532 11.2781 10.1467 11.2781 9.83427 10.9657L7.19995 8.33137V4.8C7.19995 4.35817 7.55812 4 7.99995 4Z" fill="#6A707C"/>
<path fill-rule="evenodd" clip-rule="evenodd" d="M8 1.6C4.46538 1.6 1.6 4.46538 1.6 8C1.6 11.5346 4.46538 14.4 8 14.4C11.5346 14.4 14.4 11.5346 14.4 8C14.4 4.46538 11.5346 1.6 8 1.6ZM0 8C0 3.58172 3.58172 0 8 0C12.4183 0 16 3.58172 16 8C16 12.4183 12.4183 16 8 16C3.58172 16 0 12.4183 0 8Z" fill="#6A707C"/>
</svg>
