<svg width="56" height="56" viewBox="0 0 56 56" fill="none" xmlns="http://www.w3.org/2000/svg">
<path d="M54.0294 27.9983C54.8942 26.9912 55.5003 25.7883 55.795 24.4939C56.0897 23.1995 56.0641 21.8528 55.7205 20.5705C55.3769 19.2883 54.7256 18.1092 53.8231 17.1356C52.9207 16.1621 51.7943 15.4234 50.5418 14.9837C50.7872 13.679 50.7106 12.3342 50.3186 11.0658C49.9266 9.79745 49.231 8.6439 48.2922 7.70524C47.3534 6.76657 46.1998 6.07115 44.9314 5.6793C43.663 5.28744 42.3181 5.21099 41.0135 5.45658C40.5741 4.20374 39.8356 3.07707 38.862 2.17441C37.8884 1.27175 36.7092 0.620369 35.4267 0.27683C34.1443 -0.0667089 32.7974 -0.0920244 31.5029 0.203081C30.2085 0.498187 29.0057 1.10479 27.9988 1.97023C26.9917 1.10539 25.7888 0.499329 24.4944 0.204631C23.2 -0.0900668 21.8533 -0.0645017 20.571 0.279107C19.2888 0.622716 18.1097 1.27399 17.1362 2.17644C16.1626 3.07888 15.4239 4.20524 14.9842 5.45779C13.6796 5.2126 12.3349 5.28939 11.0667 5.68151C9.79851 6.07363 8.64515 6.76923 7.70663 7.70798C6.76812 8.64673 6.07282 9.80028 5.68102 11.0686C5.28923 12.3369 5.21278 13.6816 5.45831 14.9861C4.20575 15.4258 3.07939 16.1645 2.17694 17.1381C1.2745 18.1116 0.623218 19.2907 0.279609 20.573C-0.064 21.8552 -0.0895687 23.202 0.205129 24.4963C0.499827 25.7907 1.1059 26.9936 1.97074 28.0007C1.10563 29.0078 0.499377 30.2108 0.204596 31.5054C-0.0901857 32.7999 -0.0645948 34.1468 0.279165 35.4291C0.622925 36.7115 1.27445 37.8906 2.17721 38.8641C3.07996 39.8376 4.20667 40.576 5.45952 41.0154C5.21378 42.32 5.29014 43.6648 5.68198 44.9331C6.07383 46.2015 6.76931 47.355 7.70806 48.2937C8.6468 49.2323 9.80044 49.9276 11.0688 50.3193C12.3372 50.711 13.6821 50.7872 14.9866 50.5413C15.4263 51.7938 16.165 52.9202 17.1386 53.8226C18.1122 54.7251 19.2912 55.3763 20.5735 55.72C21.8557 56.0636 23.2025 56.0891 24.4968 55.7944C25.7912 55.4997 26.9941 54.8937 28.0013 54.0288C29.0084 54.8939 30.2114 55.5002 31.5059 55.795C32.8004 56.0898 34.1473 56.0642 35.4296 55.7204C36.712 55.3766 37.8911 54.7251 38.8646 53.8224C39.8381 52.9196 40.5766 51.7929 41.0159 50.5401C42.3205 50.7857 43.6653 50.7093 44.9337 50.3175C46.2021 49.9256 47.3557 49.2302 48.2944 48.2915C49.2331 47.3528 49.9286 46.1992 50.3204 44.9308C50.7123 43.6624 50.7887 42.3176 50.543 41.013C51.7956 40.5734 52.9221 39.8347 53.8246 38.8611C54.7271 37.8875 55.3783 36.7083 55.7218 35.426C56.0654 34.1436 56.0907 32.7968 55.7958 31.5025C55.5009 30.2081 54.8945 29.0052 54.0294 27.9983Z" fill="url(#paint0_linear_523_969)"/>
<path d="M22.9737 38.6865L15.1929 30.9105C14.8976 30.6147 14.7317 30.2139 14.7317 29.7959C14.7317 29.378 14.8976 28.9771 15.1929 28.6813L16.1382 27.7348C16.4339 27.4395 16.8348 27.2736 17.2527 27.2736C17.6707 27.2736 18.0716 27.4395 18.3673 27.7348L24.0234 33.3872L37.3439 19.2319C37.6305 18.9278 38.0261 18.7498 38.4438 18.7371C38.8615 18.7243 39.2672 18.8778 39.5718 19.1639L40.5426 20.0801C40.8471 20.3668 41.0253 20.7626 41.038 21.1806C41.0508 21.5986 40.897 22.0046 40.6106 22.3093L25.2405 38.6513C25.0958 38.8056 24.9216 38.9291 24.7281 39.0147C24.5347 39.1002 24.3261 39.146 24.1146 39.1493C23.9031 39.1525 23.6931 39.1133 23.4972 39.0338C23.3012 38.9543 23.1232 38.8362 22.9737 38.6865Z" fill="white"/>
<defs>
<linearGradient id="paint0_linear_523_969" x1="0.0001267" y1="13.7194" x2="43.623" y2="6.4367" gradientUnits="userSpaceOnUse">
<stop stop-color="#00A4FB"/>
<stop offset="1" stop-color="#00F798"/>
</linearGradient>
</defs>
</svg>
