<svg width="21" height="9" viewBox="0 0 21 9" fill="none" xmlns="http://www.w3.org/2000/svg">
<path fill-rule="evenodd" clip-rule="evenodd" d="M21 4.68756C21.0003 3.77461 20.6676 2.89291 20.0642 2.20779C19.4608 1.52267 18.6282 1.0812 17.7225 0.966174C16.8168 0.851144 15.9003 1.07045 15.1448 1.58297C14.3893 2.0955 13.8467 2.86602 13.6187 3.75006H8.38125C8.15306 2.86598 7.61026 2.09547 6.8546 1.58297C6.09894 1.07048 5.18231 0.851179 4.27652 0.966189C3.37074 1.0812 2.538 1.52262 1.9344 2.20771C1.3308 2.89279 0.997787 3.7745 0.997787 4.68756C0.997787 5.60062 1.3308 6.48233 1.9344 7.16742C2.538 7.8525 3.37074 8.29392 4.27652 8.40893C5.18231 8.52394 6.09894 8.30465 6.8546 7.79215C7.61026 7.27965 8.15306 6.50914 8.38125 5.62506H13.6187C13.8486 6.50717 14.3918 7.27539 15.1469 7.78615C15.9019 8.29692 16.8171 8.51528 17.7214 8.40042C18.6257 8.28556 19.4573 7.84535 20.0606 7.16205C20.664 6.47876 20.9979 5.59913 21 4.68756ZM17.25 2.81256C17.7473 2.81256 18.2242 3.01011 18.5758 3.36174C18.9275 3.71337 19.125 4.19028 19.125 4.68756C19.125 5.18484 18.9275 5.66176 18.5758 6.01339C18.2242 6.36502 17.7473 6.56256 17.25 6.56256C16.7527 6.56256 16.2758 6.36502 15.9242 6.01339C15.5725 5.66176 15.375 5.18484 15.375 4.68756C15.375 4.19028 15.5725 3.71337 15.9242 3.36174C16.2758 3.01011 16.7527 2.81256 17.25 2.81256ZM4.75 2.81256C5.24728 2.81256 5.72419 3.01011 6.07583 3.36174C6.42746 3.71337 6.625 4.19028 6.625 4.68756C6.625 5.18484 6.42746 5.66176 6.07583 6.01339C5.72419 6.36502 5.24728 6.56256 4.75 6.56256C4.25272 6.56256 3.7758 6.36502 3.42418 6.01339C3.07254 5.66176 2.875 5.18484 2.875 4.68756C2.875 4.19028 3.07254 3.71337 3.42418 3.36174C3.7758 3.01011 4.25272 2.81256 4.75 2.81256Z" fill="url(#paint0_linear_346_985)"/>
<defs>
<linearGradient id="paint0_linear_346_985" x1="21.0003" y1="2.77447" x2="7.63264" y2="-3.17546" gradientUnits="userSpaceOnUse">
<stop stop-color="#00A4FB"/>
<stop offset="1" stop-color="#00F798"/>
</linearGradient>
</defs>
</svg>
