<svg width="19" height="12" viewBox="0 0 19 12" fill="none" xmlns="http://www.w3.org/2000/svg">
<path d="M1.75639 7.82362C2.56792 4.09555 5.96041 1.44663 9.77651 1.44663C13.5914 1.44663 16.9839 4.09555 17.7966 7.82362C17.8288 7.97156 17.9211 8.1012 18.0532 8.18403C18.1853 8.26686 18.3464 8.29609 18.5011 8.2653C18.6557 8.2345 18.7912 8.14621 18.8778 8.01982C18.9644 7.89344 18.9949 7.73934 18.9628 7.5914C18.0382 3.35108 14.1709 0.308289 9.77651 0.308289C5.3821 0.308289 1.51483 3.35108 0.59026 7.5914C0.55807 7.73934 0.588628 7.89344 0.675212 8.01982C0.761796 8.14621 0.897314 8.2345 1.05195 8.2653C1.20659 8.29609 1.36768 8.26686 1.49979 8.18403C1.6319 8.1012 1.7242 7.97156 1.75639 7.82362ZM9.76461 3.72331C10.8692 3.72331 11.9285 4.14308 12.7095 4.89026C13.4906 5.63744 13.9294 6.65084 13.9294 7.70751C13.9294 8.76419 13.4906 9.77758 12.7095 10.5248C11.9285 11.2719 10.8692 11.6917 9.76461 11.6917C8.66005 11.6917 7.60073 11.2719 6.81969 10.5248C6.03864 9.77758 5.59986 8.76419 5.59986 7.70751C5.59986 6.65084 6.03864 5.63744 6.81969 4.89026C7.60073 4.14308 8.66005 3.72331 9.76461 3.72331Z" fill="#6A707C"/>
</svg>
