<svg width="26" height="25" viewBox="0 0 26 25" fill="none" xmlns="http://www.w3.org/2000/svg">
<path fill-rule="evenodd" clip-rule="evenodd" d="M13.7967 2.91418C13.3066 2.47853 12.5679 2.47853 12.0778 2.91418L12.0778 2.91422L7.97499 6.56111L5.17491 9.05007V18.5314C5.17491 19.7877 5.17765 20.5998 5.2581 21.1981C5.33354 21.7593 5.45535 21.9351 5.55384 22.0336C5.65232 22.1321 5.8282 22.2539 6.38933 22.3294C6.98768 22.4098 7.79976 22.4126 9.05607 22.4126H9.0561V18.5314C9.0561 16.3879 10.7937 14.6503 12.9373 14.6503C15.0808 14.6503 16.8184 16.3879 16.8184 18.5314V22.4126C18.0747 22.4126 18.8868 22.4098 19.4851 22.3294C20.0462 22.2539 20.2221 22.1321 20.3206 22.0336C20.4191 21.9351 20.5409 21.7592 20.6164 21.1981C20.6968 20.5998 20.6996 19.7877 20.6996 18.5314V9.05009L13.7967 2.91422L13.7967 2.91418ZM15.534 25H16.9036C18.0504 25.0001 19.0386 25.0001 19.8299 24.8937C20.678 24.7797 21.4909 24.5226 22.1502 23.8632C22.8096 23.2039 23.0667 22.391 23.1807 21.5429C23.2871 20.7516 23.2871 19.7634 23.287 18.6166L23.287 11.35L23.7212 11.736C24.2553 12.2107 25.073 12.1626 25.5477 11.6286C26.0224 11.0945 25.9743 10.2768 25.4402 9.80211L19.6185 4.62722L15.5157 0.980378L15.5157 0.980338C14.0453 -0.326779 11.8292 -0.326779 10.3588 0.980338L10.3587 0.980378L6.25598 4.62723L0.434234 9.80211C-0.0997924 10.2768 -0.147894 11.0945 0.326796 11.6286C0.801486 12.1626 1.61921 12.2107 2.15324 11.736L2.58746 11.35L2.58746 18.6166C2.5874 19.7634 2.58734 20.7516 2.69373 21.5429C2.80775 22.391 3.06487 23.2039 3.72423 23.8632C4.38358 24.5226 5.1965 24.7797 6.04455 24.8937C6.83587 25.0001 7.82403 25.0001 8.9709 25H10.3406C10.3436 25 10.3467 25 10.3498 25C10.3529 25 10.356 25 10.3591 25H15.5155C15.5185 25 15.5216 25 15.5247 25C15.5278 25 15.5309 25 15.534 25ZM14.231 22.4126V18.5314C14.231 17.8169 13.6518 17.2377 12.9373 17.2377C12.2227 17.2377 11.6435 17.8169 11.6435 18.5314V22.4126H14.231Z" fill="url(#paint0_linear_360_1114)"/>
<defs>
<linearGradient id="paint0_linear_360_1114" x1="-0.000382548" y1="6.12525" x2="20.1169" y2="2.64919" gradientUnits="userSpaceOnUse">
<stop stop-color="#00A4FB"/>
<stop offset="1" stop-color="#00F798"/>
</linearGradient>
</defs>
</svg>
