<svg width="85" height="85" viewBox="0 0 85 85" fill="none" xmlns="http://www.w3.org/2000/svg">
<path d="M82.2279 19.4031C83.7589 19.4031 85 18.162 85 16.631C85 15.1 83.7589 13.8589 82.2279 13.8589C80.6969 13.8589 79.4558 15.1 79.4558 16.631C79.4558 18.162 80.6969 19.4031 82.2279 19.4031Z" fill="url(#paint0_linear_441_73)"/>
<path d="M4.61916 56.3597C6.15016 56.3597 7.39128 55.1185 7.39128 53.5875C7.39128 52.0566 6.15016 50.8154 4.61916 50.8154C3.08816 50.8154 1.84705 52.0566 1.84705 53.5875C1.84705 55.1185 3.08816 56.3597 4.61916 56.3597Z" fill="url(#paint1_linear_441_73)"/>
<path d="M1.84707 21.2503C2.86718 21.2503 3.69414 20.4233 3.69414 19.4032C3.69414 18.3831 2.86718 17.5562 1.84707 17.5562C0.826962 17.5562 0 18.3831 0 19.4032C0 20.4233 0.826962 21.2503 1.84707 21.2503Z" fill="url(#paint2_linear_441_73)"/>
<path d="M66.5203 41.5755C67.5404 41.5755 68.3674 40.7485 68.3674 39.7284C68.3674 38.7083 67.5404 37.8813 66.5203 37.8813C65.5002 37.8813 64.6732 38.7083 64.6732 39.7284C64.6732 40.7485 65.5002 41.5755 66.5203 41.5755Z" fill="url(#paint3_linear_441_73)"/>
<path d="M77.6072 71.1409C78.6273 71.1409 79.4543 70.314 79.4543 69.2939C79.4543 68.2737 78.6273 67.4468 77.6072 67.4468C76.5871 67.4468 75.7601 68.2737 75.7601 69.2939C75.7601 70.314 76.5871 71.1409 77.6072 71.1409Z" fill="url(#paint4_linear_441_73)"/>
<path d="M14.7826 41.5755C15.8027 41.5755 16.6297 40.7485 16.6297 39.7284C16.6297 38.7083 15.8027 37.8813 14.7826 37.8813C13.7625 37.8813 12.9355 38.7083 12.9355 39.7284C12.9355 40.7485 13.7625 41.5755 14.7826 41.5755Z" fill="url(#paint5_linear_441_73)"/>
<path d="M32.8142 35.5923C35.799 36.6683 38.4308 38.2482 40.6521 40.296C42.875 38.2482 45.5067 36.6683 48.4901 35.5923C57.6183 32.3011 63.7496 23.5667 63.7496 13.859V9.23984H17.5532V13.859C17.5532 23.5667 23.6859 32.2996 32.8142 35.5923ZM17.5532 75.7616H36.0314V58.2069C36.0314 57.9619 36.1287 57.727 36.3019 57.5538C36.4751 57.3806 36.71 57.2833 36.955 57.2833C37.1999 57.2833 37.4348 57.3806 37.608 57.5538C37.7812 57.727 37.8785 57.9619 37.8785 58.2069V75.7616H43.4212V65.5982C43.4212 65.3532 43.5185 65.1183 43.6917 64.9451C43.8649 64.7719 44.0998 64.6746 44.3448 64.6746C44.5897 64.6746 44.8246 64.7719 44.9978 64.9451C45.171 65.1183 45.2683 65.3532 45.2683 65.5982V75.7616H63.7466V69.2938C63.7466 59.5861 57.6138 50.8533 48.4871 47.5606C45.5022 46.4846 42.8704 44.9046 40.6491 42.8569C38.4263 44.9046 35.7945 46.4846 32.8111 47.5606C23.6829 50.8518 17.5517 59.5861 17.5517 69.2938L17.5532 75.7616ZM67.4452 77.6087H13.8575C11.8203 77.6087 10.1619 79.2671 10.1619 81.3043C10.1619 83.3415 11.8203 85 13.8575 85H67.4437C69.481 85 71.1394 83.3415 71.1394 81.3043C71.1394 79.2671 69.4825 77.6087 67.4452 77.6087ZM67.4452 0.00146484H13.8575C11.8203 0.00146484 10.1619 1.65991 10.1619 3.69712C10.1619 5.73433 11.8203 7.39277 13.8575 7.39277H67.4452C69.4825 7.39277 71.1409 5.73433 71.1409 3.69712C71.1409 1.65991 69.4825 0.00146484 67.4452 0.00146484Z" fill="url(#paint6_linear_441_73)"/>
<defs>
<linearGradient id="paint0_linear_441_73" x1="79.4557" y1="15.2173" x2="83.7747" y2="14.4962" gradientUnits="userSpaceOnUse">
<stop stop-color="#00A4FB"/>
<stop offset="1" stop-color="#00F798"/>
</linearGradient>
<linearGradient id="paint1_linear_441_73" x1="1.84696" y1="52.1738" x2="6.16591" y2="51.4528" gradientUnits="userSpaceOnUse">
<stop stop-color="#00A4FB"/>
<stop offset="1" stop-color="#00F798"/>
</linearGradient>
<linearGradient id="paint2_linear_441_73" x1="-5.4617e-05" y1="18.4613" x2="2.87767" y2="17.9808" gradientUnits="userSpaceOnUse">
<stop stop-color="#00A4FB"/>
<stop offset="1" stop-color="#00F798"/>
</linearGradient>
<linearGradient id="paint3_linear_441_73" x1="64.6732" y1="38.7864" x2="67.5509" y2="38.306" gradientUnits="userSpaceOnUse">
<stop stop-color="#00A4FB"/>
<stop offset="1" stop-color="#00F798"/>
</linearGradient>
<linearGradient id="paint4_linear_441_73" x1="75.7601" y1="68.3519" x2="78.6378" y2="67.8714" gradientUnits="userSpaceOnUse">
<stop stop-color="#00A4FB"/>
<stop offset="1" stop-color="#00F798"/>
</linearGradient>
<linearGradient id="paint5_linear_441_73" x1="12.9355" y1="38.7864" x2="15.8132" y2="38.306" gradientUnits="userSpaceOnUse">
<stop stop-color="#00A4FB"/>
<stop offset="1" stop-color="#00F798"/>
</linearGradient>
<linearGradient id="paint6_linear_441_73" x1="10.161" y1="20.8269" x2="58.2969" y2="15.0615" gradientUnits="userSpaceOnUse">
<stop stop-color="#00A4FB"/>
<stop offset="1" stop-color="#00F798"/>
</linearGradient>
</defs>
</svg>
