<svg width="18" height="20" viewBox="0 0 18 20" fill="none" xmlns="http://www.w3.org/2000/svg">
<path d="M8 9.89948V14.9997C8 15.265 8.10536 15.5193 8.29289 15.7069C8.48043 15.8944 8.73478 15.9998 9 15.9998C9.26522 15.9998 9.51957 15.8944 9.70711 15.7069C9.89464 15.5193 10 15.265 10 14.9997V9.89948C11.214 9.65166 12.2928 8.96185 13.0272 7.9638C13.7616 6.96574 14.0992 5.73055 13.9747 4.49768C13.8501 3.26482 13.2723 2.12211 12.3532 1.29111C11.434 0.460104 10.2391 0 9 0C7.76092 0 6.56598 0.460104 5.64685 1.29111C4.72771 2.12211 4.14986 3.26482 4.02532 4.49768C3.90078 5.73055 4.23843 6.96574 4.9728 7.9638C5.70718 8.96185 6.78596 9.65166 8 9.89948ZM9 1.99908C9.59334 1.99908 10.1734 2.17504 10.6667 2.5047C11.1601 2.83436 11.5446 3.30292 11.7716 3.85113C11.9987 4.39933 12.0581 5.00256 11.9424 5.58454C11.8266 6.16651 11.5409 6.70108 11.1213 7.12066C10.7018 7.54024 10.1672 7.82598 9.58527 7.94174C9.00333 8.0575 8.40013 7.99809 7.85195 7.77101C7.30377 7.54394 6.83524 7.1594 6.50559 6.66603C6.17595 6.17266 6 5.59261 6 4.99923C6 4.20354 6.31607 3.44044 6.87868 2.87781C7.44129 2.31517 8.20435 1.99908 9 1.99908ZM13.21 12.4196C13.0787 12.392 12.9432 12.3906 12.8113 12.4154C12.6795 12.4401 12.5537 12.4907 12.4414 12.564C12.329 12.6374 12.2322 12.7322 12.1565 12.8429C12.0808 12.9537 12.0276 13.0783 12 13.2097C11.9724 13.341 11.971 13.4765 11.9958 13.6083C12.0205 13.7402 12.071 13.8659 12.1444 13.9783C12.2178 14.0907 12.3125 14.1875 12.4233 14.2632C12.5341 14.339 12.6587 14.3921 12.79 14.4197C15.06 14.8697 16 15.6798 16 15.9998C16 16.5798 13.55 17.9999 9 17.9999C4.45 17.9999 2 16.5798 2 15.9998C2 15.6798 2.94 14.8697 5.21 14.3797C5.34132 14.3521 5.46593 14.299 5.5767 14.2232C5.68747 14.1475 5.78224 14.0507 5.8556 13.9383C5.92896 13.8259 5.97947 13.7002 6.00424 13.5683C6.02902 13.4365 6.02758 13.301 6 13.1697C5.97242 13.0383 5.91925 12.9137 5.84352 12.8029C5.76778 12.6922 5.67097 12.5974 5.55861 12.524C5.44626 12.4507 5.32055 12.4001 5.18867 12.3754C5.05679 12.3506 4.92132 12.352 4.79 12.3796C1.75 13.0796 0 14.3897 0 15.9998C0 18.6299 4.53 20 9 20C13.47 20 18 18.6299 18 15.9998C18 14.3897 16.25 13.0796 13.21 12.4196Z" fill="#6A707C"/>
</svg>
