<svg width="67" height="67" viewBox="0 0 67 67" fill="none" xmlns="http://www.w3.org/2000/svg">
<circle cx="33.5" cy="33.5" r="33.5" fill="url(#paint0_linear_360_1793)"/>
<mask id="mask0_360_1793" style="mask-type:alpha" maskUnits="userSpaceOnUse" x="0" y="0" width="67" height="67">
<circle cx="33.5" cy="33.5" r="33.5" fill="url(#paint1_linear_360_1793)"/>
</mask>
<g mask="url(#mask0_360_1793)">
<path d="M32.554 67.924C35.002 67.924 36.784 67.51 37.9 66.682C39.016 65.854 39.574 64.684 39.574 63.172C39.574 62.272 39.376 61.498 38.98 60.85C38.62 60.202 38.08 59.626 37.36 59.122C36.676 58.582 35.83 58.096 34.822 57.664C33.814 57.196 32.662 56.746 31.366 56.314C30.07 55.846 28.81 55.342 27.586 54.802C26.398 54.226 25.336 53.524 24.4 52.696C23.5 51.868 22.762 50.878 22.186 49.726C21.646 48.574 21.376 47.188 21.376 45.568C21.376 42.184 22.546 39.538 24.886 37.63C27.226 35.686 30.412 34.714 34.444 34.714C36.784 34.714 38.854 34.984 40.654 35.524C42.49 36.028 43.93 36.586 44.974 37.198L42.868 42.706C41.644 42.022 40.294 41.5 38.818 41.14C37.378 40.78 35.884 40.6 34.336 40.6C32.5 40.6 31.06 40.978 30.016 41.734C29.008 42.49 28.504 43.552 28.504 44.92C28.504 45.748 28.666 46.468 28.99 47.08C29.35 47.656 29.836 48.178 30.448 48.646C31.096 49.114 31.834 49.546 32.662 49.942C33.526 50.338 34.462 50.716 35.47 51.076C37.234 51.724 38.8 52.39 40.168 53.074C41.572 53.722 42.742 54.514 43.678 55.45C44.65 56.35 45.388 57.43 45.892 58.69C46.396 59.914 46.648 61.408 46.648 63.172C46.648 66.556 45.442 69.184 43.03 71.056C40.654 72.892 37.162 73.81 32.554 73.81C31.006 73.81 29.584 73.702 28.288 73.486C27.028 73.306 25.894 73.072 24.886 72.784C23.914 72.496 23.068 72.208 22.348 71.92C21.628 71.596 21.052 71.308 20.62 71.056L22.618 65.494C23.59 66.034 24.904 66.574 26.56 67.114C28.216 67.654 30.214 67.924 32.554 67.924Z" fill="#F5F5F5"/>
</g>
<defs>
<linearGradient id="paint0_linear_360_1793" x1="-0.000990579" y1="16.4156" x2="52.1918" y2="7.70203" gradientUnits="userSpaceOnUse">
<stop stop-color="#00A4FB"/>
<stop offset="1" stop-color="#00F798"/>
</linearGradient>
<linearGradient id="paint1_linear_360_1793" x1="-0.000990579" y1="16.4156" x2="52.1918" y2="7.70203" gradientUnits="userSpaceOnUse">
<stop stop-color="#00A4FB"/>
<stop offset="1" stop-color="#00F798"/>
</linearGradient>
</defs>
</svg>
