<svg width="24" height="24" viewBox="0 0 24 24" fill="none" xmlns="http://www.w3.org/2000/svg">
<path fill-rule="evenodd" clip-rule="evenodd" d="M10.2857 0C13.4416 0 16 2.6863 16 6C16 6.66274 15.4883 7.2 14.8571 7.2C14.226 7.2 13.7143 6.66274 13.7143 6C13.7143 4.01178 12.1792 2.4 10.2857 2.4H5.71429C3.82069 2.4 2.28572 4.01178 2.28572 6V18C2.28572 19.9883 3.82069 21.6 5.71429 21.6H10.2857C12.1792 21.6 13.7143 19.9883 13.7143 18C13.7143 17.3372 14.226 16.8 14.8571 16.8C15.4883 16.8 16 17.3372 16 18C16 21.3137 13.4416 24 10.2857 24H5.71429C2.5584 24 0 21.3137 0 18V6C0 2.6863 2.5584 0 5.71429 0H10.2857ZM9 11C8.4477 11 8 11.4477 8 12C8 12.5523 8.4477 13 9 13V13.2502H19.4271C19.3151 13.3874 19.2077 13.5206 19.1061 13.6477C18.797 14.0348 18.5354 14.3747 18.3506 14.6183C18.2581 14.7403 18.1847 14.8383 18.134 14.9066L18.0754 14.9857L18.0596 15.0071L18.0534 15.0155C17.6447 15.574 17.7694 16.3557 18.332 16.7615C18.8945 17.1672 19.6824 17.0426 20.0911 16.4842L20.094 16.4802L20.1069 16.4627L20.1595 16.3917C20.206 16.3292 20.2748 16.2373 20.3622 16.1221C20.5371 15.8915 20.7857 15.5685 21.0791 15.201C21.6724 14.4581 22.4239 13.5651 23.1097 12.884L24 12.0002L23.1097 11.1163C22.4239 10.4353 21.6724 9.54225 21.0791 8.79933C20.7857 8.43189 20.5371 8.10888 20.3622 7.87823C20.2748 7.76301 20.206 7.67112 20.1595 7.60859L20.1069 7.53762L20.094 7.52012L20.0905 7.51529C19.6818 6.95684 18.8945 6.83305 18.332 7.23882C17.7694 7.64461 17.6454 8.4272 18.0541 8.98572L18.0596 8.99329L18.0754 9.01464L18.134 9.09377C18.1847 9.16195 18.2581 9.26006 18.3506 9.38199C18.5354 9.62563 18.797 9.96551 19.1061 10.3526C19.2077 10.4798 19.3151 10.6129 19.4271 10.7501H9V11Z" fill="url(#paint0_linear_360_1179)"/>
<defs>
<linearGradient id="paint0_linear_360_1179" x1="-0.000354834" y1="5.88022" x2="18.6956" y2="2.75893" gradientUnits="userSpaceOnUse">
<stop stop-color="#00A4FB"/>
<stop offset="1" stop-color="#00F798"/>
</linearGradient>
</defs>
</svg>
