<svg width="52" height="52" viewBox="0 0 52 52" fill="none" xmlns="http://www.w3.org/2000/svg">
<path d="M16.061 28.8118C18.4936 32.4824 21.1298 36.014 23.9572 39.3898C24.2673 39.747 24.6661 40.016 25.1134 40.1697V51.7249L14.2415 47.8433L16.061 28.8118ZM28.0622 39.3808C30.8928 36.0107 33.5291 32.4819 35.9584 28.8118L37.7509 47.8433L26.9059 51.7249V40.1697C27.3556 40.0162 27.7552 39.7436 28.0622 39.3808ZM12.44 47.9329L1.21856 51.94C1.06874 51.9978 0.906174 52.0142 0.747837 51.9876C0.589504 51.961 0.441219 51.8924 0.318481 51.7889C0.195744 51.6853 0.103062 51.5507 0.0501213 51.3991C-0.00281906 51.2475 -0.0140686 51.0845 0.01754 50.9271L3.60266 32.1017C3.63142 31.9567 3.69557 31.8211 3.78939 31.707C3.88321 31.5928 4.0038 31.5036 4.14043 31.4473L14.4118 27.1713L12.44 47.9329ZM50.8008 51.94L39.5794 47.9329L37.6075 27.1713L47.861 31.4473C47.9976 31.5036 48.1182 31.5928 48.212 31.707C48.3058 31.8211 48.37 31.9567 48.3988 32.1017L51.9839 50.9271C52.0137 51.0824 52.002 51.2429 51.9498 51.3923C51.8975 51.5416 51.8067 51.6745 51.6866 51.7774C51.5664 51.8802 51.4212 51.9495 51.2656 51.9781C51.11 52.0066 50.9497 51.9935 50.8008 51.94ZM25.3285 38.2334C24.7638 37.57 11.6692 22.0077 11.6692 14.3431C11.6692 10.5391 13.1801 6.89086 15.8694 4.201C18.5588 1.51115 22.2063 0 26.0097 0C29.813 0 33.4606 1.51115 36.1499 4.201C38.8393 6.89086 40.3502 10.5391 40.3502 14.3431C40.3502 22.0077 27.2555 37.57 26.6908 38.2334C26.6067 38.3318 26.5022 38.4108 26.3847 38.465C26.2671 38.5192 26.1391 38.5472 26.0097 38.5472C25.8802 38.5472 25.7523 38.5192 25.6347 38.465C25.5171 38.4108 25.4126 38.3318 25.3285 38.2334ZM32.2836 14.3431C32.2836 13.102 31.9157 11.8888 31.2263 10.8569C30.5369 9.82492 29.557 9.02062 28.4106 8.54567C27.2642 8.07072 26.0027 7.94646 24.7857 8.18858C23.5687 8.43071 22.4507 9.02836 21.5733 9.90595C20.6959 10.7835 20.0983 11.9017 19.8563 13.1189C19.6142 14.3362 19.7384 15.5979 20.2133 16.7445C20.6881 17.8911 21.4923 18.8712 22.524 19.5607C23.5558 20.2502 24.7688 20.6182 26.0097 20.6182C27.6736 20.6182 29.2694 19.9571 30.446 18.7803C31.6226 17.6035 32.2836 16.0074 32.2836 14.3431Z" fill="url(#paint0_linear_529_2565)"/>
<defs>
<linearGradient id="paint0_linear_529_2565" x1="52.0008" y1="12.7405" x2="11.4929" y2="5.97769" gradientUnits="userSpaceOnUse">
<stop stop-color="#00A4FB"/>
<stop offset="1" stop-color="#00F798"/>
</linearGradient>
</defs>
</svg>
