<svg width="18" height="21" viewBox="0 0 18 21" fill="none" xmlns="http://www.w3.org/2000/svg">
<path d="M6.0573 16.2V16.96C6.0573 17.7663 6.36733 18.5395 6.9192 19.1096C7.47106 19.6797 8.21955 20 9 20C9.78046 20 10.5289 19.6797 11.0808 19.1096C11.6327 18.5395 11.9427 17.7663 11.9427 16.96V16.2M2.39759 7.83996C2.39637 6.93861 2.56786 6.04592 2.90216 5.21335C3.23646 4.38078 3.72696 3.6248 4.3454 2.98898C4.96384 2.35316 5.69797 1.85008 6.50549 1.50873C7.31301 1.16739 8.17795 0.994535 9.05043 1.00013C12.6911 1.02809 15.6031 4.15427 15.6031 7.92583V8.59997C15.6031 12.0025 16.2922 13.9769 16.8991 15.056C16.9645 15.1713 16.9993 15.3024 17 15.436C17.0007 15.5697 16.9672 15.7011 16.9031 15.8171C16.8389 15.9331 16.7462 16.0296 16.6344 16.0969C16.5226 16.1641 16.3957 16.1996 16.2663 16.2H1.7337C1.60433 16.1996 1.47734 16.1641 1.36553 16.0968C1.25373 16.0296 1.16106 15.9331 1.09689 15.817C1.03271 15.701 0.999297 15.5695 1.00001 15.4359C1.00073 15.3022 1.03555 15.1711 1.10096 15.0558C1.70819 13.9767 2.39759 12.0023 2.39759 8.59997L2.39759 7.83996Z" stroke="#1E232C" stroke-width="1.5" stroke-linecap="round" stroke-linejoin="round"/>
</svg>
