<svg width="25" height="24" viewBox="0 0 25 24" fill="none" xmlns="http://www.w3.org/2000/svg">
<path fill-rule="evenodd" clip-rule="evenodd" d="M7.72395 7.29055C7.72395 4.60684 9.89953 2.43126 12.5832 2.43126C15.2669 2.43126 17.4425 4.60684 17.4425 7.29055C17.4425 9.97426 15.2669 12.1498 12.5832 12.1498C9.89952 12.1498 7.72395 9.97426 7.72395 7.29055ZM12.5832 0.487549C8.82604 0.487549 5.78024 3.53336 5.78024 7.29055C5.78024 9.59223 6.92329 11.6269 8.6727 12.858C7.43808 13.3063 6.28051 13.967 5.2556 14.8199C3.19775 16.5324 1.80481 18.9117 1.31876 21.5444L1.3184 21.5463L0.941528 23.6344L2.85434 23.9796L3.23017 21.8972L3.23051 21.8954C3.6344 19.7102 4.79078 17.7354 6.49892 16.3139C8.20752 14.8921 10.3602 14.1136 12.583 14.1139H12.5832C14.8086 14.1144 16.9634 14.8955 18.6724 16.321C20.3813 17.7465 21.5362 19.7262 21.936 21.9154L21.936 21.9157L22.3122 24L24.225 23.6547L23.8483 21.5676L23.8481 21.5666C23.3667 18.9298 21.9758 16.5454 19.9175 14.8284C18.8907 13.972 17.7304 13.3087 16.4925 12.8589C18.2426 11.6279 19.3862 9.59278 19.3862 7.29055C19.3862 3.53336 16.3404 0.487549 12.5832 0.487549Z" fill="url(#paint0_linear_360_1161)"/>
<defs>
<linearGradient id="paint0_linear_360_1161" x1="0.941184" y1="6.24831" x2="19.0885" y2="3.24811" gradientUnits="userSpaceOnUse">
<stop stop-color="#00A4FB"/>
<stop offset="1" stop-color="#00F798"/>
</linearGradient>
</defs>
</svg>
