<svg width="23" height="23" viewBox="0 0 23 23" fill="none" xmlns="http://www.w3.org/2000/svg">
<path d="M22.04 15.8454L19.9863 13.7917C19.3741 13.1844 18.5478 12.842 17.6855 12.8383C16.8232 12.8347 15.994 13.17 15.3767 13.7721C15.0473 14.1034 14.6127 14.3095 14.1477 14.355C13.6828 14.4005 13.2165 14.2825 12.8291 14.0213C11.3002 13.001 9.98679 11.69 8.96348 10.1631C8.70692 9.77143 8.5932 9.30328 8.64149 8.83754C8.68978 8.3718 8.89713 7.93694 9.22859 7.60623C9.82519 6.98831 10.1562 6.1614 10.1508 5.30249C10.1454 4.44357 9.80399 3.6209 9.19966 3.01054L7.14595 0.956814C6.53109 0.344063 5.69843 0 4.83039 0C3.96234 0 3.12968 0.344063 2.51483 0.956814L1.92392 1.54866C-1.15664 4.62925 -0.926069 11.106 5.48337 17.5117C9.34808 21.3774 13.238 22.9961 16.3923 22.9961C17.3208 23.027 18.2462 22.8728 19.1146 22.5425C19.9829 22.2122 20.7768 21.7124 21.45 21.0722L22.0419 20.4803C22.6557 19.8652 23.0004 19.0315 23 18.1625C22.9996 17.2934 22.6544 16.4601 22.04 15.8454ZM20.72 19.1603L20.1282 19.7522C17.7011 22.1793 12.3437 21.7359 6.80148 16.1927C1.25927 10.6495 0.814918 5.28831 3.24203 2.86118L3.8292 2.27027C4.09358 2.00684 4.45158 1.85894 4.82479 1.85894C5.198 1.85894 5.55599 2.00684 5.82037 2.27027L7.87408 4.324C8.13365 4.58487 8.28099 4.93687 8.28465 5.30486C8.28832 5.67286 8.14801 6.02772 7.89368 6.29371C7.26289 6.92853 6.86941 7.76084 6.77917 8.6512C6.68893 9.54157 6.9074 10.4359 7.39799 11.1844C8.56072 12.9244 10.0559 14.4173 11.7976 15.5775C12.5438 16.0682 13.4358 16.2879 14.3246 16.2001C15.2133 16.1122 16.045 15.7221 16.6808 15.0949C16.9462 14.8375 17.3021 14.6946 17.6718 14.6969C18.0416 14.6992 18.3956 14.8464 18.6579 15.107L20.7116 17.1607C20.844 17.2912 20.9493 17.4465 21.0214 17.6178C21.0935 17.7891 21.131 17.9729 21.1318 18.1588C21.1325 18.3446 21.0966 18.5288 21.0259 18.7007C20.9552 18.8725 20.8513 19.0288 20.72 19.1603Z" fill="url(#paint0_linear_10_10)"/>
<defs>
<linearGradient id="paint0_linear_10_10" x1="-0.00034005" y1="5.63522" x2="17.9166" y2="2.64398" gradientUnits="userSpaceOnUse">
<stop stop-color="#00A4FB"/>
<stop offset="1" stop-color="#00F798"/>
</linearGradient>
</defs>
</svg>
