<svg width="23" height="22" viewBox="0 0 23 22" fill="none" xmlns="http://www.w3.org/2000/svg">
<path d="M2.44996 20.0269C1.691 19.3351 1.08313 18.5026 0.662435 17.5787C0.241736 16.6549 0.0167758 15.6585 0.000902963 14.6488C-0.0149698 13.639 0.178568 12.6365 0.570033 11.7007C0.961498 10.7648 1.54291 9.91472 2.27978 9.20082L10.099 1.62157C10.6144 1.11158 11.2289 0.705685 11.9071 0.427362C12.5852 0.149038 13.3136 0.0038086 14.0501 7.39111e-05C14.7865 -0.00366078 15.5164 0.134173 16.1976 0.405604C16.8787 0.677034 17.4976 1.07667 18.0184 1.58141C18.5392 2.08614 18.9515 2.68596 19.2317 3.34616C19.5118 4.00636 19.6541 4.71384 19.6504 5.42768C19.6466 6.14153 19.4969 6.84757 19.2099 7.50498C18.9228 8.16238 18.5042 8.75809 17.9781 9.25767L10.1588 16.8369C9.51881 17.4292 8.66799 17.7596 7.78316 17.7596C6.89832 17.7596 6.0475 17.4292 5.40748 16.8369C4.77853 16.2254 4.42536 15.3971 4.42536 14.5336C4.42536 13.6701 4.77853 12.8418 5.40748 12.2303L11.6571 6.17247C11.874 5.96943 12.1645 5.85709 12.466 5.85963C12.7675 5.86217 13.0559 5.97939 13.2691 6.18604C13.4823 6.3927 13.6032 6.67225 13.6058 6.9645C13.6085 7.25674 13.4925 7.53829 13.2831 7.74851L7.03113 13.8063C6.83451 13.9993 6.72425 14.2596 6.72425 14.5308C6.72425 14.802 6.83451 15.0623 7.03113 15.2553C7.23298 15.4407 7.50048 15.544 7.77856 15.544C8.05664 15.544 8.32414 15.4407 8.52599 15.2553L16.3452 7.67606C16.9438 7.07848 17.2758 6.27662 17.2695 5.44373C17.2631 4.61085 16.919 3.81382 16.3114 3.22486C15.7038 2.63591 14.8815 2.30232 14.0223 2.29618C13.163 2.29003 12.3357 2.61183 11.7192 3.19204L3.89997 10.7713C3.38052 11.2739 2.97051 11.8726 2.69429 12.5317C2.41807 13.1909 2.28127 13.8971 2.29199 14.6085C2.30272 15.3199 2.46075 16.0219 2.75673 16.6729C3.0527 17.324 3.48057 17.9108 4.01496 18.3985C5.10933 19.3339 6.53365 19.8243 7.99156 19.7676C9.44947 19.7109 10.8287 19.1115 11.8423 18.0942L21.023 9.19525C21.1291 9.0888 21.256 9.00388 21.3963 8.94547C21.5365 8.88705 21.6874 8.85631 21.8401 8.85502C21.9928 8.85373 22.1442 8.88194 22.2855 8.93798C22.4269 8.99402 22.5552 9.07678 22.6632 9.18144C22.7712 9.28609 22.8566 9.41054 22.9144 9.54752C22.9722 9.68449 23.0013 9.83126 23 9.97926C22.9986 10.1273 22.9669 10.2735 22.9066 10.4095C22.8464 10.5455 22.7588 10.6685 22.649 10.7713L13.4682 19.6702C11.9362 21.1576 9.85829 21.9953 7.69002 21.9997C5.74735 22.0157 3.87217 21.3097 2.44996 20.0269Z" fill="url(#paint0_linear_360_1699)"/>
<defs>
<linearGradient id="paint0_linear_360_1699" x1="-0.00034005" y1="5.39021" x2="17.8715" y2="2.27087" gradientUnits="userSpaceOnUse">
<stop stop-color="#00A4FB"/>
<stop offset="1" stop-color="#00F798"/>
</linearGradient>
</defs>
</svg>
