<svg width="22" height="28" viewBox="0 0 22 28" fill="none" xmlns="http://www.w3.org/2000/svg">
<path fill-rule="evenodd" clip-rule="evenodd" d="M14.3087 0.372769C14.0795 0.134094 13.7686 0 13.4444 0H3.66667C1.64157 0 0 1.70946 0 3.81818V24.1818C0 26.2906 1.64157 28 3.66667 28H18.3333C20.3584 28 22 26.2906 22 24.1818V8.90909C22 8.57154 21.8712 8.24782 21.642 8.00913L14.3087 0.372769ZM3.66667 2.54545H12.2222V8.90909C12.2222 9.61199 12.7694 10.1818 13.4444 10.1818H19.5556V24.1818C19.5556 24.8847 19.0083 25.4545 18.3333 25.4545H3.66667C2.99163 25.4545 2.44444 24.8847 2.44444 24.1818V3.81818C2.44444 3.11528 2.99163 2.54545 3.66667 2.54545ZM17.8271 7.63636H14.6667V4.34536L17.8271 7.63636ZM17.1111 15.2727C17.1111 14.5698 16.5639 14 15.8889 14H6.11111C5.43608 14 4.88889 14.5698 4.88889 15.2727C4.88889 15.9757 5.43608 16.5455 6.11111 16.5455H15.8889C16.5639 16.5455 17.1111 15.9757 17.1111 15.2727ZM17.1111 20.3636C17.1111 19.6607 16.5639 19.0909 15.8889 19.0909H6.11111C5.43608 19.0909 4.88889 19.6607 4.88889 20.3636C4.88889 21.0666 5.43608 21.6364 6.11111 21.6364H15.8889C16.5639 21.6364 17.1111 21.0666 17.1111 20.3636Z" fill="url(#paint0_linear_405_1487)"/>
<defs>
<linearGradient id="paint0_linear_405_1487" x1="22.0003" y1="6.86026" x2="4.6827" y2="4.58862" gradientUnits="userSpaceOnUse">
<stop stop-color="#00A4FB"/>
<stop offset="1" stop-color="#00F798"/>
</linearGradient>
</defs>
</svg>
