<svg width="54" height="57" viewBox="0 0 54 57" fill="none" xmlns="http://www.w3.org/2000/svg">
<path d="M50.7704 3.28973C52.1067 4.6825 52.8483 6.54073 52.8382 8.47085C52.8442 10.4512 52.0741 12.355 50.6931 13.7743L45.5616 19.8878L40.5062 13.8504C37.723 10.9772 37.7495 6.26339 40.5836 3.36589C41.2507 2.66907 42.0516 2.11401 42.9383 1.73392C43.825 1.35383 44.7792 1.15653 45.7439 1.15381C46.6824 1.15281 47.6115 1.34149 48.4752 1.70853C49.339 2.07558 50.1197 2.61341 50.7704 3.28973ZM49.208 8.10274C49.2081 7.39673 48.9989 6.70654 48.6067 6.11945C48.2146 5.53236 47.6571 5.07473 47.0049 4.80445C46.3527 4.53416 45.635 4.46336 44.9425 4.60098C44.25 4.7386 43.6139 5.07848 43.1146 5.57763C42.6153 6.07677 42.2752 6.71277 42.1374 7.40519C41.9995 8.09762 42.0701 8.81537 42.3402 9.46769C42.6102 10.12 43.0677 10.6776 43.6546 11.0699C44.2416 11.4622 44.9317 11.6717 45.6377 11.6718C46.1065 11.6719 46.5707 11.5797 47.0038 11.4003C47.437 11.221 47.8305 10.9581 48.162 10.6267C48.4936 10.2953 48.7566 9.90181 48.936 9.46875C49.1155 9.03569 49.2079 8.57152 49.208 8.10274Z" fill="#16978A"/>
<path d="M13.9134 38.6605C15.2968 40.1012 16.0646 42.0242 16.0539 44.0216C16.0598 46.0705 15.2628 48.0402 13.8338 49.5085L8.53036 55.8262H8.51882L3.29385 49.587C0.414813 46.6145 0.441354 41.738 3.37347 38.7389C4.06377 38.018 4.89243 37.4438 5.80984 37.0506C6.72726 36.6574 7.71457 36.4534 8.71268 36.4507C9.68373 36.4496 10.645 36.6448 11.5387 37.0245C12.4324 37.4043 13.2401 37.9607 13.9134 38.6605ZM12.2968 43.6408C12.2968 42.9105 12.0802 42.1966 11.6745 41.5893C11.2687 40.9821 10.692 40.5088 10.0173 40.2293C9.34257 39.9498 8.60012 39.8767 7.88383 40.0192C7.16754 40.1617 6.50959 40.5133 5.99318 41.0298C5.47677 41.5462 5.12508 42.2041 4.98261 42.9204C4.84013 43.6367 4.91325 44.3791 5.19273 45.0539C5.47222 45.7286 5.9455 46.3053 6.55274 46.711C7.15998 47.1168 7.87389 47.3333 8.60421 47.3333C9.58348 47.3332 10.5226 46.9441 11.215 46.2516C11.9075 45.5592 12.2966 44.6201 12.2968 43.6408Z" fill="#00F798"/>
<path d="M7.63683 56.5719C7.74463 56.7035 7.88008 56.8099 8.03356 56.8834C8.18705 56.957 8.35483 56.9958 8.52501 56.9973C8.56701 56.9973 8.60867 56.9973 8.64986 56.9973H18.7257C20.0903 56.9933 21.3979 56.4501 22.3637 55.4861C23.3295 54.5221 23.875 53.2154 23.8814 51.8508V31.6918C23.8797 31.3167 23.9523 30.945 24.0952 30.5982C24.238 30.2513 24.4482 29.9363 24.7136 29.6712C24.9789 29.4062 25.2943 29.1964 25.6412 29.054C25.9882 28.9116 26.36 28.8394 26.7351 28.8416H26.8447C28.4316 28.8416 29.7664 30.1049 29.7664 31.6918V46.2727C29.7664 47.6499 30.3135 48.9707 31.2873 49.9445C32.2612 50.9183 33.5819 51.4654 34.9591 51.4654C36.3363 51.4654 37.6571 50.9183 38.6309 49.9445C39.6047 48.9707 40.1518 47.6499 40.1518 46.2727V23.9039C40.1464 23.5379 40.2141 23.1745 40.3508 22.8349C40.4876 22.4954 40.6907 22.1865 40.9482 21.9264C41.2058 21.6662 41.5126 21.4601 41.8508 21.32C42.1889 21.1798 42.5517 21.1085 42.9177 21.1103H45.5752V21.0428C45.5692 21.0273 45.5647 21.0112 45.5618 20.9949H45.5625C45.7293 20.9994 45.895 20.967 46.0478 20.8999C46.2006 20.8329 46.3367 20.7328 46.4463 20.607L51.5507 14.538C53.1268 12.9109 54.0035 10.7316 53.9931 8.46637C54.0064 6.23703 53.1477 4.0908 51.6003 2.48593C50.843 1.69725 49.9337 1.07032 48.9273 0.643045C47.9208 0.21577 46.8382 -0.00297572 45.7448 3.05713e-05C44.626 0.000520435 43.5189 0.227587 42.4902 0.667539C41.4615 1.10749 40.5326 1.75121 39.7594 2.5599C36.5016 5.89081 36.4552 11.3077 39.6482 14.6378L43.1231 18.8024H42.9177C42.2487 18.801 41.586 18.9322 40.968 19.1885C40.35 19.4447 39.7889 19.8208 39.3171 20.2952C38.8453 20.7696 38.4722 21.3327 38.2193 21.9521C37.9665 22.5715 37.8389 23.2349 37.8439 23.9039V46.2727C37.8396 46.6527 37.7604 47.0281 37.6108 47.3773C37.4611 47.7266 37.244 48.0429 36.9719 48.3081C36.7067 48.576 36.3909 48.7885 36.0428 48.9331C35.6947 49.0777 35.3213 49.1516 34.9443 49.1505C34.1822 49.1493 33.4517 48.8455 32.9135 48.3059C32.3753 47.7662 32.0734 47.0349 32.0743 46.2727V31.6918C32.0743 28.8323 29.7041 26.5337 26.8447 26.5337H26.7351C26.057 26.5318 25.3853 26.664 24.7585 26.9225C24.1316 27.181 23.562 27.5608 23.0824 28.0401C22.6028 28.5194 22.2226 29.0887 21.9637 29.7154C21.7047 30.342 21.5722 31.0137 21.5736 31.6918V51.8508C21.5678 52.6035 21.2656 53.3236 20.7325 53.8549C20.1994 54.3863 19.4784 54.6861 18.7257 54.6895H11.0059L14.6908 50.293C16.3155 48.613 17.219 46.3643 17.2083 44.0272C17.2225 41.7289 16.3375 39.5162 14.7424 37.8617C13.9626 37.0494 13.0262 36.4036 11.9899 35.9633C10.9536 35.523 9.83874 35.2973 8.71275 35.3C7.56066 35.3 6.42053 35.5335 5.36114 35.9863C4.30176 36.4391 3.34508 37.1018 2.54884 37.9345C-0.806429 41.3664 -0.85397 46.931 2.43529 50.3606L7.63683 56.5719ZM41.336 13.0493C38.9745 10.6114 39.0074 6.63025 41.413 4.17077C41.9719 3.58402 42.6439 3.11657 43.3884 2.79666C44.1329 2.47674 44.9345 2.31098 45.7448 2.30938C46.5287 2.30767 47.3049 2.46491 48.0263 2.77162C48.7477 3.07832 49.3994 3.52811 49.9421 4.09381C51.072 5.27015 51.6975 6.84144 51.6852 8.47249C51.6944 10.1518 51.0419 11.7672 49.8691 12.9691C49.8486 12.99 49.8289 13.0117 49.8102 13.0341L45.5638 18.0932L41.3919 13.1113C41.374 13.0897 41.3554 13.0691 41.336 13.0493ZM4.20264 39.5441C4.78456 38.9332 5.48426 38.4465 6.25949 38.1136C7.03472 37.7806 7.86939 37.6082 8.7131 37.6068C9.52962 37.605 10.338 37.7688 11.0895 38.0883C11.8409 38.4077 12.5198 38.8762 13.0851 39.4654C14.2619 40.6895 14.9134 42.3254 14.9004 44.0234C14.9097 45.7714 14.2303 47.4527 13.0092 48.7035C12.9888 48.7245 12.9693 48.7461 12.9504 48.7683L8.52605 54.0392L4.17899 48.8482C4.16106 48.8269 4.14241 48.8063 4.12302 48.7862C1.66539 46.2487 1.69943 42.1044 4.20264 39.5441Z" fill="url(#paint0_linear_529_2566)"/>
<defs>
<linearGradient id="paint0_linear_529_2566" x1="-0.000798277" y1="13.9649" x2="42.1772" y2="7.29439" gradientUnits="userSpaceOnUse">
<stop stop-color="#00A4FB"/>
<stop offset="1" stop-color="#00F798"/>
</linearGradient>
</defs>
</svg>
