<svg width="16" height="16" viewBox="0 0 16 16" fill="none" xmlns="http://www.w3.org/2000/svg">
<path d="M15.7373 14.4754L12.716 11.463C13.6908 10.2211 14.2197 8.68756 14.2177 7.10881C14.2177 5.70281 13.8008 4.32838 13.0197 3.15933C12.2385 1.99029 11.1283 1.07913 9.82931 0.541072C8.53034 0.0030191 7.10098 -0.13776 5.722 0.136537C4.34301 0.410834 3.07633 1.08789 2.08214 2.08208C1.08795 3.07627 0.410895 4.34295 0.136598 5.72194C-0.137699 7.10092 0.00308014 8.53028 0.541133 9.82925C1.07919 11.1282 1.99035 12.2385 3.15939 13.0196C4.32844 13.8007 5.70287 14.2177 7.10887 14.2177C8.68762 14.2196 10.2212 13.6907 11.463 12.7159L14.4754 15.7372C14.558 15.8205 14.6563 15.8866 14.7646 15.9317C14.8729 15.9768 14.989 16 15.1063 16C15.2236 16 15.3398 15.9768 15.4481 15.9317C15.5564 15.8866 15.6546 15.8205 15.7373 15.7372C15.8205 15.6546 15.8867 15.5563 15.9318 15.448C15.9769 15.3397 16.0001 15.2236 16.0001 15.1063C16.0001 14.989 15.9769 14.8728 15.9318 14.7645C15.8867 14.6563 15.8205 14.558 15.7373 14.4754ZM1.77722 7.10881C1.77722 6.05431 2.08992 5.02349 2.67576 4.1467C3.26161 3.26992 4.0943 2.58655 5.06853 2.18301C6.04277 1.77947 7.11478 1.67388 8.14902 1.8796C9.18326 2.08533 10.1333 2.59312 10.8789 3.33876C11.6246 4.08441 12.1323 5.03442 12.3381 6.06865C12.5438 7.10289 12.4382 8.17491 12.0347 9.14914C11.6311 10.1234 10.9478 10.9561 10.071 11.5419C9.19419 12.1278 8.16337 12.4405 7.10887 12.4405C5.69483 12.4405 4.3387 11.8787 3.33882 10.8789C2.33895 9.87897 1.77722 8.52285 1.77722 7.10881Z" fill="#6A707C"/>
</svg>
