<svg width="26" height="26" viewBox="0 0 26 26" fill="none" xmlns="http://www.w3.org/2000/svg">
<path fill-rule="evenodd" clip-rule="evenodd" d="M13.0277 7.75811e-05C11.6755 -0.00885813 10.4326 0.754744 9.83025 1.96259L9.27156 3.08007C9.05139 3.16183 8.8348 3.25138 8.62053 3.34789L7.4362 2.95308C6.15675 2.52595 4.73666 2.86459 3.78856 3.82813C2.85414 4.77791 2.53337 6.17619 2.95514 7.43684L3.34992 8.61897C3.25135 8.83476 3.15913 9.0528 3.07519 9.27468L1.96243 9.83111C0.755953 10.4329 -0.00979619 11.6747 9.46823e-05 13.0265C0.00984717 14.3593 0.771138 15.5751 1.96012 16.1689L3.07981 16.7322C3.16189 16.9525 3.25115 17.1692 3.34761 17.3833L2.95514 18.5654C2.52847 19.8438 2.866 21.2627 3.82781 22.2111C4.77676 23.1468 6.17501 23.4678 7.4362 23.0469L8.61822 22.6544C8.83373 22.7527 9.05228 22.8428 9.27387 22.9268L9.83025 24.0374C10.4326 25.2453 11.6755 26.0105 13.0277 25.9999C14.3601 25.991 15.5762 25.2276 16.1698 24.0374L16.7261 22.9245C16.9491 22.8419 17.1695 22.7522 17.3864 22.6544L18.5638 23.0469C19.825 23.4678 21.2232 23.147 22.1722 22.2111C23.1346 21.2622 23.4727 19.842 23.0449 18.5631L22.6524 17.381C22.7505 17.1661 22.8412 16.9485 22.9248 16.7276L24.0376 16.1689C25.2275 15.5754 25.9902 14.3599 25.9999 13.0265C26.0098 11.6747 25.244 10.4329 24.0376 9.83111L22.9202 9.27237C22.838 9.05076 22.7491 8.83232 22.6524 8.61666L23.0449 7.43684V7.43453C23.4655 6.17446 23.1453 4.77733 22.2114 3.82813C21.2633 2.86441 19.8433 2.52609 18.5638 2.95308L17.3795 3.34789C17.1646 3.25004 16.9471 3.159 16.7261 3.07545L16.1698 1.96259C15.5762 0.772437 14.3602 0.0104877 13.0277 7.75811e-05ZM13.0092 2.36433C13.4538 2.36777 13.8554 2.61989 14.055 3.02004L14.8054 4.52078C14.8758 4.66193 14.9738 4.78756 15.0935 4.89026C15.2132 4.99296 15.3523 5.07066 15.5026 5.11877C15.9479 5.26085 16.3804 5.43911 16.7954 5.65442C16.9355 5.72734 17.0888 5.77144 17.2462 5.78413C17.4036 5.79682 17.562 5.77784 17.7119 5.7283L19.3095 5.19727H19.3118C19.7423 5.0534 20.2099 5.16597 20.5261 5.48587C20.8376 5.80265 20.9427 6.26469 20.8009 6.68878V6.69109L20.2722 8.28188C20.2229 8.43053 20.2037 8.5875 20.2155 8.74367C20.2274 8.89983 20.2702 9.05207 20.3414 9.19156C20.5541 9.60752 20.7306 10.041 20.8701 10.4868C20.9177 10.6385 20.9954 10.7791 21.0985 10.9001C21.2016 11.0211 21.3281 11.12 21.4704 11.191L22.9802 11.946C23.3863 12.1484 23.6392 12.5578 23.6359 13.0081C23.6326 13.4517 23.3806 13.8543 22.9802 14.054H22.9779L21.4773 14.8066C21.3366 14.8773 21.2114 14.9754 21.1091 15.0952C21.0068 15.2149 20.9295 15.3539 20.8817 15.5039C20.7388 15.9494 20.5598 16.3819 20.3438 16.7969C20.2705 16.9373 20.2263 17.091 20.2136 17.2488C20.2009 17.4067 20.22 17.5655 20.2699 17.7158L20.8009 19.3112C20.9448 19.7414 20.8355 20.2092 20.5146 20.5256C20.1983 20.8375 19.736 20.9443 19.3118 20.8027H19.3095L17.7188 20.274C17.5699 20.2244 17.4125 20.2049 17.2559 20.2168C17.0993 20.2287 16.9467 20.2717 16.8069 20.3432C16.3904 20.5568 15.9583 20.7342 15.5118 20.8743C15.3601 20.9218 15.2195 20.9995 15.0986 21.1027C14.9776 21.2058 14.8786 21.3323 14.8077 21.4746L14.055 22.9799C13.8555 23.3803 13.4539 23.6322 13.0092 23.6356C12.5578 23.6392 12.1476 23.3863 11.945 22.9799L11.1947 21.4815C11.1242 21.3403 11.0262 21.2147 10.9065 21.112C10.7868 21.0093 10.6477 20.9316 10.4974 20.8835C10.0513 20.7405 9.61787 20.5618 9.2023 20.3455C9.0619 20.2723 8.90822 20.228 8.75038 20.2153C8.59254 20.2027 8.43376 20.2218 8.28347 20.2717L6.6882 20.8027C6.26397 20.9443 5.80169 20.8384 5.4854 20.5256C5.16445 20.2093 5.05518 19.7415 5.19913 19.3112V19.3089L5.72781 17.7181C5.77706 17.5689 5.79609 17.4115 5.7838 17.2549C5.77151 17.0983 5.72815 16.9457 5.65624 16.8061C5.443 16.391 5.26557 15.9583 5.12526 15.5132C5.07796 15.3623 5.00087 15.2224 4.89856 15.1018C4.79625 14.9813 4.6708 14.8825 4.52963 14.8113L3.02209 14.054H3.01979C2.61941 13.8543 2.36738 13.4519 2.36413 13.0081C2.36084 12.5578 2.61373 12.1485 3.01979 11.946L4.5204 11.1956C4.66154 11.1252 4.78715 11.0272 4.88985 10.9074C4.99254 10.7877 5.07022 10.6486 5.11833 10.4984C5.26125 10.0529 5.44024 9.62039 5.65624 9.20541C5.72915 9.06531 5.77326 8.91202 5.78594 8.75458C5.79863 8.59715 5.77965 8.43878 5.73012 8.2888L5.19913 6.69109V6.68878C5.05726 6.26478 5.16241 5.80242 5.47386 5.48587C5.79005 5.16463 6.25769 5.05385 6.6882 5.19727L8.28116 5.7283C8.43014 5.7779 8.58751 5.79733 8.74408 5.78543C8.90065 5.77354 9.05328 5.73057 9.19307 5.65904C9.60832 5.44637 10.0408 5.26989 10.4859 5.13031C10.6376 5.08275 10.7781 5.00507 10.8991 4.90192C11.0201 4.79878 11.1191 4.67229 11.19 4.53002L11.945 3.02004C12.1476 2.61346 12.5578 2.3608 13.0092 2.36433ZM13.0046 7.09052C9.75457 7.09052 7.0876 9.7485 7.08759 12.9988C7.08757 16.2492 9.75455 18.9141 13.0046 18.9141C16.2547 18.9141 18.9101 16.2492 18.9101 12.9988C18.9101 9.7485 16.2547 7.09052 13.0046 7.09052ZM13.0046 9.45477C14.977 9.45477 16.5461 11.0262 16.5461 12.9988C16.5461 14.9714 14.9771 16.5498 13.0046 16.5498C11.0322 16.5498 9.45162 14.9714 9.45163 12.9988C9.45164 11.0262 11.0322 9.45477 13.0046 9.45477Z" fill="url(#paint0_linear_405_1491)"/>
<defs>
<linearGradient id="paint0_linear_405_1491" x1="-0.000384404" y1="6.37024" x2="20.2535" y2="2.98885" gradientUnits="userSpaceOnUse">
<stop stop-color="#00A4FB"/>
<stop offset="1" stop-color="#00F798"/>
</linearGradient>
</defs>
</svg>
