<svg width="59" height="43" viewBox="0 0 59 43" fill="none" xmlns="http://www.w3.org/2000/svg">
<path d="M50.9545 10.75H42.9091V0H5.36364C2.40023 0 0 2.40531 0 5.375V34.9375H5.36364C5.36364 39.3853 8.97068 43 13.4091 43C17.8475 43 21.4545 39.3853 21.4545 34.9375H37.5455C37.5455 39.3853 41.1525 43 45.5909 43C50.0293 43 53.6364 39.3853 53.6364 34.9375H59V21.5L50.9545 10.75ZM13.4091 38.9688C11.1832 38.9688 9.38636 37.1681 9.38636 34.9375C9.38636 32.7069 11.1832 30.9062 13.4091 30.9062C15.635 30.9062 17.4318 32.7069 17.4318 34.9375C17.4318 37.1681 15.635 38.9688 13.4091 38.9688ZM49.6136 14.7812L54.8834 21.5H42.9091V14.7812H49.6136ZM45.5909 38.9688C43.365 38.9688 41.5682 37.1681 41.5682 34.9375C41.5682 32.7069 43.365 30.9062 45.5909 30.9062C47.8168 30.9062 49.6136 32.7069 49.6136 34.9375C49.6136 37.1681 47.8168 38.9688 45.5909 38.9688Z" fill="url(#paint0_linear_520_337)"/>
<path d="M26.4025 4.41016C27.7635 10.7165 34.5686 16.3222 34.5686 21.9279C34.5686 27.5335 29.8051 31.0371 26.4025 31.0371C22.9999 31.0371 18.2364 27.5335 18.2364 21.9279C18.2364 16.3222 25.0415 10.7165 26.4025 4.41016ZM30.4856 15.6215C30.4856 15.6215 32.5271 19.125 31.5063 26.6577C35.9297 21.2272 30.4856 15.6215 30.4856 15.6215Z" fill="white"/>
<defs>
<linearGradient id="paint0_linear_520_337" x1="-0.000872301" y1="10.5354" x2="44.8856" y2="0.253195" gradientUnits="userSpaceOnUse">
<stop stop-color="#00A4FB"/>
<stop offset="1" stop-color="#00F798"/>
</linearGradient>
</defs>
</svg>
