<svg width="31" height="36" viewBox="0 0 31 36" fill="none" xmlns="http://www.w3.org/2000/svg">
<path d="M28.9653 29.2463V23.7324C28.9653 23.4506 28.9098 23.1716 28.8019 22.9112C28.6941 22.6509 28.536 22.4143 28.3368 22.2151C28.1375 22.0158 27.901 21.8577 27.6406 21.7499C27.3803 21.6421 27.1012 21.5866 26.8194 21.5866H26.2569V1.44767C26.2564 1.35905 26.2347 1.27184 26.1937 1.19332C26.1526 1.11479 26.0933 1.04723 26.0208 0.996281L24.6319 0.100447C24.5529 0.053836 24.4632 0.0283389 24.3715 0.0264084C24.2798 0.0244778 24.1891 0.0461785 24.1082 0.0894237C24.0273 0.132669 23.9589 0.196004 23.9095 0.273338C23.8602 0.350673 23.8315 0.439405 23.8264 0.531003V7.00322L23.4167 5.906C23.1493 5.18744 22.6689 4.56765 22.0397 4.12957C21.4105 3.69149 20.6625 3.456 19.8958 3.45461H10.5139C9.74259 3.45573 8.99018 3.69334 8.35813 4.1354C7.72608 4.57746 7.24479 5.20271 6.97917 5.92684L6.59028 7.00322V0.531003C6.58961 0.435037 6.56313 0.34102 6.51361 0.258814C6.46409 0.176608 6.39336 0.109244 6.30884 0.0637879C6.22432 0.0183319 6.12913 -0.00354018 6.03324 0.000466272C5.93736 0.00447273 5.84432 0.03421 5.76389 0.0865584L4.375 0.982392C4.3025 1.03335 4.24323 1.1009 4.20216 1.17943C4.16108 1.25795 4.13939 1.34516 4.13889 1.43378V21.5727H3.57639C3.29459 21.5727 3.01556 21.6282 2.75521 21.736C2.49487 21.8438 2.25831 22.0019 2.05906 22.2012C1.8598 22.4004 1.70174 22.637 1.5939 22.8973C1.48606 23.1577 1.43055 23.4367 1.43055 23.7185V29.2324H0.534722C0.392905 29.2324 0.256896 29.2887 0.156616 29.389C0.0563366 29.4893 0 29.6253 0 29.7671V32.7532C0 32.8234 0.013831 32.893 0.0407033 32.9579C0.0675756 33.0227 0.106963 33.0817 0.156616 33.1313C0.20627 33.181 0.265217 33.2204 0.330092 33.2472C0.394968 33.2741 0.464501 33.2879 0.534722 33.2879H2.84722V34.6768C2.84906 34.9611 2.96327 35.2331 3.16493 35.4335C3.3666 35.6338 3.63933 35.7463 3.92361 35.7463H6.77083C7.05447 35.7463 7.32648 35.6336 7.52704 35.433C7.7276 35.2325 7.84028 34.9605 7.84028 34.6768V33.2879H22.5764V34.6768C22.5764 34.9605 22.6891 35.2325 22.8896 35.433C23.0902 35.6336 23.3622 35.7463 23.6458 35.7463H26.4931C26.7773 35.7463 27.0501 35.6338 27.2517 35.4335C27.4534 35.2331 27.5676 34.9611 27.5694 34.6768V33.2879H29.8819C29.9522 33.2879 30.0217 33.2741 30.0866 33.2472C30.1514 33.2204 30.2104 33.181 30.26 33.1313C30.3097 33.0817 30.3491 33.0227 30.376 32.9579C30.4028 32.893 30.4167 32.8234 30.4167 32.7532V29.781C30.4167 29.6392 30.3603 29.5032 30.26 29.4029C30.1598 29.3026 30.0238 29.2463 29.8819 29.2463H28.9653ZM7.30555 9.99628H23.1111V15.2879H7.30555V9.99628ZM6.9375 27.7463H5.10417C4.83647 27.7444 4.58036 27.6368 4.39172 27.4469C4.20308 27.2569 4.09722 27.0001 4.09722 26.7324C4.09722 26.4635 4.20404 26.2056 4.39418 26.0155C4.58432 25.8253 4.84221 25.7185 5.11111 25.7185H6.94444C7.21334 25.7185 7.47123 25.8253 7.66137 26.0155C7.85151 26.2056 7.95833 26.4635 7.95833 26.7324C7.95833 26.8661 7.93188 26.9985 7.8805 27.122C7.82911 27.2455 7.75381 27.3575 7.65892 27.4518C7.56404 27.546 7.45144 27.6206 7.32763 27.6711C7.20382 27.7216 7.07123 27.7472 6.9375 27.7463ZM18.8542 28.0449H11.5625C11.4209 28.0458 11.2805 28.0186 11.1495 27.9648C11.0185 27.9111 10.8995 27.8318 10.7993 27.7317C10.6992 27.6315 10.6199 27.5125 10.5662 27.3815C10.5124 27.2505 10.4852 27.1101 10.4861 26.9685V20.1699C10.4861 20.0289 10.514 19.8892 10.5682 19.759C10.6224 19.6288 10.7017 19.5106 10.8018 19.4112C10.9018 19.3118 11.0206 19.2332 11.1511 19.1798C11.2817 19.1265 11.4215 19.0995 11.5625 19.1004H18.8542C18.9952 19.0995 19.135 19.1265 19.2656 19.1798C19.3961 19.2332 19.5148 19.3118 19.6149 19.4112C19.7149 19.5106 19.7943 19.6288 19.8485 19.759C19.9027 19.8892 19.9306 20.0289 19.9306 20.1699V26.9685C19.9315 27.1101 19.9043 27.2505 19.8505 27.3815C19.7967 27.5125 19.7175 27.6315 19.6173 27.7317C19.5172 27.8318 19.3982 27.9111 19.2672 27.9648C19.1362 28.0186 18.9958 28.0458 18.8542 28.0449ZM25.3125 27.7463H23.4792C23.2103 27.7463 22.9524 27.6395 22.7622 27.4493C22.5721 27.2592 22.4653 27.0013 22.4653 26.7324C22.4653 26.4635 22.5721 26.2056 22.7622 26.0155C22.9524 25.8253 23.2103 25.7185 23.4792 25.7185H25.3125C25.5754 25.7202 25.8275 25.824 26.0153 26.008C26.2032 26.192 26.3122 26.4418 26.3194 26.7046C26.3231 26.8395 26.2999 26.9738 26.251 27.0995C26.2022 27.2253 26.1287 27.3401 26.0349 27.4371C25.9411 27.5341 25.8289 27.6114 25.7049 27.6645C25.5808 27.7176 25.4474 27.7454 25.3125 27.7463ZM18.6806 23.0241H11.7361C11.6662 23.025 11.5968 23.012 11.532 22.9859C11.4672 22.9598 11.4082 22.9211 11.3584 22.872C11.3087 22.8228 11.2692 22.7644 11.2422 22.6999C11.2153 22.6354 11.2014 22.5662 11.2014 22.4963C11.2014 22.4264 11.2153 22.3572 11.2422 22.2927C11.2692 22.2282 11.3087 22.1697 11.3584 22.1206C11.4082 22.0715 11.4672 22.0328 11.532 22.0067C11.5968 21.9806 11.6662 21.9676 11.7361 21.9685H18.6806C18.8205 21.9685 18.9548 22.0241 19.0537 22.1231C19.1527 22.2221 19.2083 22.3563 19.2083 22.4963C19.2083 22.6363 19.1527 22.7705 19.0537 22.8695C18.9548 22.9685 18.8205 23.0241 18.6806 23.0241ZM18.6806 20.8782H11.7361C11.6662 20.8791 11.5968 20.8662 11.532 20.8401C11.4672 20.8139 11.4082 20.7752 11.3584 20.7261C11.3087 20.677 11.2692 20.6185 11.2422 20.554C11.2153 20.4895 11.2014 20.4203 11.2014 20.3504C11.2014 20.2805 11.2153 20.2113 11.2422 20.1469C11.2692 20.0824 11.3087 20.0239 11.3584 19.9748C11.4082 19.9257 11.4672 19.8869 11.532 19.8608C11.5968 19.8347 11.6662 19.8217 11.7361 19.8227H18.6806C18.8205 19.8227 18.9548 19.8783 19.0537 19.9773C19.1527 20.0762 19.2083 20.2105 19.2083 20.3504C19.2083 20.4904 19.1527 20.6247 19.0537 20.7236C18.9548 20.8226 18.8205 20.8782 18.6806 20.8782ZM18.6806 27.3157H11.7361C11.6662 27.3166 11.5968 27.3037 11.532 27.2776C11.4672 27.2514 11.4082 27.2127 11.3584 27.1636C11.3087 27.1145 11.2692 27.056 11.2422 26.9915C11.2153 26.927 11.2014 26.8578 11.2014 26.7879C11.1966 26.7152 11.2069 26.6422 11.2317 26.5736C11.2565 26.5051 11.2953 26.4424 11.3455 26.3895C11.3957 26.3367 11.4564 26.2948 11.5236 26.2666C11.5908 26.2383 11.6632 26.2243 11.7361 26.2254H18.6806C18.8205 26.2254 18.9548 26.281 19.0537 26.38C19.1527 26.479 19.2083 26.6132 19.2083 26.7532C19.2131 26.8254 19.203 26.8978 19.1786 26.9659C19.1542 27.034 19.1161 27.0963 19.0666 27.1491C19.0171 27.2018 18.9573 27.2438 18.8909 27.2725C18.8245 27.3012 18.7529 27.3159 18.6806 27.3157ZM18.6806 25.1699H11.7361C11.6662 25.1708 11.5968 25.1578 11.532 25.1317C11.4672 25.1056 11.4082 25.0669 11.3584 25.0178C11.3087 24.9687 11.2692 24.9102 11.2422 24.8457C11.2153 24.7812 11.2014 24.712 11.2014 24.6421C11.2014 24.5722 11.2153 24.503 11.2422 24.4385C11.2692 24.374 11.3087 24.3155 11.3584 24.2664C11.4082 24.2173 11.4672 24.1786 11.532 24.1525C11.5968 24.1264 11.6662 24.1134 11.7361 24.1143H18.6806C18.8205 24.1143 18.9548 24.1699 19.0537 24.2689C19.1527 24.3679 19.2083 24.5021 19.2083 24.6421C19.2083 24.7821 19.1527 24.9163 19.0537 25.0153C18.9548 25.1143 18.8205 25.1699 18.6806 25.1699Z" fill="url(#paint0_linear_346_970)"/>
<defs>
<linearGradient id="paint0_linear_346_970" x1="-0.000449703" y1="8.75817" x2="23.8727" y2="5.36679" gradientUnits="userSpaceOnUse">
<stop stop-color="#00A4FB"/>
<stop offset="1" stop-color="#00F798"/>
</linearGradient>
</defs>
</svg>
