<?xml version="1.0" standalone="no"?>
<!DOCTYPE svg PUBLIC "-//W3C//DTD SVG 20010904//EN"
 "http://www.w3.org/TR/2001/REC-SVG-20010904/DTD/svg10.dtd">
<svg version="1.0" xmlns="http://www.w3.org/2000/svg"
 width="500.000000pt" height="500.000000pt" viewBox="0 0 500.000000 500.000000"
 preserveAspectRatio="xMidYMid meet">

<g transform="translate(0.000000,500.000000) scale(0.100000,-0.100000)"
fill="#000000" stroke="none">
<path d="M1259 4735 c-140 -38 -259 -148 -304 -280 -11 -33 -135 -446 -135
-451 0 -2 -81 -4 -181 -4 -201 0 -223 -6 -255 -65 -13 -25 -16 -51 -12 -131 3
-90 6 -103 33 -144 46 -67 106 -100 199 -107 73 -6 86 -13 68 -39 -4 -6 -32
-17 -62 -24 -107 -24 -199 -76 -280 -159 -83 -84 -122 -154 -152 -264 -17 -65
-18 -121 -18 -716 l0 -646 23 -39 c35 -63 67 -80 151 -84 l74 -4 3 -182 4
-181 30 -42 c18 -25 48 -51 73 -63 41 -20 58 -21 306 -18 l263 3 42 28 c71 47
81 82 81 285 l0 172 135 0 135 0 17 -27 c162 -258 420 -440 713 -504 210 -45
508 -15 673 68 28 14 30 13 59 -21 48 -56 118 -96 185 -104 l58 -7 154 -165
c462 -493 504 -536 558 -554 87 -30 167 -16 233 42 60 51 84 104 84 183 0 97
-14 116 -340 459 -44 47 -114 121 -155 165 -41 44 -101 107 -132 141 -53 57
-57 64 -57 110 0 54 -31 126 -76 181 l-27 33 182 0 181 0 0 -172 c0 -203 10
-238 81 -285 l42 -28 251 -3 c295 -4 319 1 375 64 46 53 51 80 51 279 l0 142
74 5 c86 6 125 28 156 88 19 38 20 61 20 683 0 593 -1 649 -18 714 -30 111
-69 180 -152 264 -81 83 -174 135 -280 159 -30 7 -58 18 -62 24 -18 26 -5 33
68 39 93 7 153 40 199 107 27 41 30 54 33 144 4 80 1 106 -12 131 -32 59 -54
65 -255 65 -100 0 -181 2 -181 4 0 4 -126 423 -139 461 -41 124 -164 234 -304
271 -73 19 -2407 19 -2478 -1z m2517 -127 c112 -59 148 -115 214 -339 28 -96
55 -185 60 -199 4 -14 20 -63 33 -110 71 -237 90 -301 113 -373 13 -43 24 -80
24 -83 0 -2 -774 -4 -1721 -4 -1593 0 -1721 1 -1715 16 4 9 22 69 41 133 18
64 50 170 70 236 20 66 40 134 45 150 4 17 22 75 38 130 17 55 42 140 57 189
28 95 55 144 105 195 32 32 93 67 140 82 14 4 570 7 1235 6 l1210 -2 51 -27z
m-3000 -745 c-4 -16 -19 -67 -34 -115 l-27 -88 -68 0 c-130 0 -167 35 -167
155 l0 75 151 0 151 0 -6 -27z m3744 -48 c0 -120 -37 -155 -167 -155 l-68 0
-27 88 c-15 48 -30 99 -34 115 l-6 27 151 0 151 0 0 -75z m-146 -431 c169 -44
297 -170 342 -337 11 -42 14 -180 14 -685 0 -418 -4 -640 -10 -653 -10 -18
-28 -19 -636 -19 -592 0 -626 1 -619 18 55 138 77 256 77 422 -1 246 -56 428
-195 635 -67 99 -220 242 -328 305 -168 100 -281 138 -475 161 -343 41 -742
-126 -957 -400 -151 -191 -220 -359 -247 -603 -16 -143 8 -328 64 -487 9 -24
16 -45 16 -47 0 -2 -254 -4 -565 -4 -548 0 -565 1 -575 19 -6 13 -10 235 -10
653 0 677 0 681 51 784 30 61 130 164 189 194 25 13 72 31 105 41 56 16 178
18 1879 18 1628 1 1825 -1 1880 -15z m-1714 -278 c571 -138 898 -698 739
-1261 -53 -187 -192 -387 -352 -508 -372 -280 -869 -273 -1233 17 -140 112
-243 255 -307 428 -50 134 -61 196 -61 348 0 272 91 498 281 698 131 137 346
253 523 282 41 6 82 13 90 15 32 8 268 -6 320 -19z m-1560 -1696 c0 -229 27
-210 -291 -210 l-248 0 -20 26 c-19 25 -21 40 -21 190 l0 164 290 0 290 0 0
-170z m3380 6 c0 -150 -2 -165 -21 -190 l-20 -26 -248 0 c-318 0 -291 -19
-291 210 l0 170 290 0 290 0 0 -164z m-1091 39 c34 -40 42 -83 26 -151 -6 -26
-156 -175 -193 -191 -33 -15 -92 -16 -125 -4 -24 9 -77 59 -77 72 0 3 24 22
54 42 69 46 168 139 226 211 25 31 48 56 51 56 4 0 21 -16 38 -35z m202 -360
c51 -55 154 -165 229 -245 301 -319 289 -304 290 -358 1 -86 -84 -152 -166
-130 -29 7 -128 106 -420 418 -33 36 -97 104 -142 152 -45 47 -82 89 -82 92 0
5 41 45 140 134 25 23 48 40 52 39 4 -1 48 -47 99 -102z"/>
<path d="M755 2967 c-93 -31 -160 -88 -198 -167 -32 -67 -35 -179 -7 -252 69
-184 298 -254 467 -143 199 131 177 431 -40 541 -60 31 -163 40 -222 21z m163
-113 c102 -42 155 -154 120 -255 -15 -45 -41 -77 -86 -108 -32 -22 -48 -26
-114 -26 -70 0 -79 2 -115 31 -77 63 -106 137 -83 219 34 120 166 186 278 139z"/>
<path d="M4085 2971 c-137 -36 -237 -162 -238 -301 -1 -115 45 -205 136 -265
166 -109 384 -46 464 133 21 49 24 68 21 137 -5 97 -28 152 -90 212 -24 23
-65 52 -92 64 -53 23 -152 33 -201 20z m165 -123 c110 -57 152 -194 87 -288
-43 -64 -89 -92 -160 -97 -49 -4 -73 -1 -102 12 -103 50 -151 164 -109 263 47
113 178 163 284 110z"/>
<path d="M2380 2994 c-177 -20 -277 -54 -415 -142 -169 -108 -298 -285 -357
-489 -20 -67 -23 -101 -23 -238 1 -139 4 -170 24 -235 106 -343 377 -572 733
-620 254 -35 544 70 724 261 244 260 308 638 162 959 -111 242 -348 433 -601
484 -82 16 -195 25 -247 20z m190 -118 c134 -24 223 -62 327 -140 62 -47 153
-140 153 -157 0 -5 -259 -9 -610 -9 -335 0 -610 3 -610 6 0 15 79 100 134 143
174 138 393 195 606 157z m583 -488 c14 -40 31 -104 38 -142 11 -68 8 -233 -5
-255 -11 -17 -1482 -16 -1492 1 -4 7 -8 69 -8 138 1 126 20 224 60 303 l15 27
683 0 683 0 26 -72z m-3 -520 c0 -19 -45 -113 -71 -147 l-23 -31 -617 0 -617
0 -31 50 c-31 50 -61 115 -61 131 0 5 309 9 710 9 561 0 710 -3 710 -12z
m-190 -292 c0 -3 -32 -28 -72 -57 -138 -100 -269 -143 -443 -144 -132 0 -229
21 -333 73 -74 38 -182 111 -182 125 0 4 232 7 515 7 283 0 515 -2 515 -4z"/>
<path d="M1890 2321 c-5 -11 -10 -67 -10 -124 0 -88 3 -106 18 -120 26 -23 58
-21 76 5 12 17 16 48 16 124 0 85 -3 103 -18 117 -25 23 -69 22 -82 -2z"/>
<path d="M2226 2318 c-12 -17 -16 -48 -16 -118 0 -105 13 -140 54 -140 45 0
56 27 56 143 0 83 -3 109 -16 121 -22 23 -60 20 -78 -6z"/>
<path d="M2562 2328 c-8 -8 -12 -50 -12 -124 0 -119 9 -144 50 -144 41 0 50
25 50 136 0 58 -5 114 -10 125 -12 22 -59 26 -78 7z"/>
<path d="M2897 2322 c-26 -28 -25 -222 1 -245 22 -20 53 -22 70 -5 8 8 12 51
12 128 0 77 -4 120 -12 128 -18 18 -53 15 -71 -6z"/>
</g>
</svg>
